<?xml version="1.0" encoding="UTF-8" standalone="no"?>
<!-- Generator: Adobe Illustrator 16.0.0, SVG Export Plug-In . SVG Version: 6.00 Build 0)  -->

<svg
   version="1.1"
   id="Calque_1"
   x="0px"
   y="0px"
   width="283.46px"
   height="283.46px"
   viewBox="0 0 283.46 283.46"
   style="enable-background:new 0 0 283.46 283.46;"
   xml:space="preserve"
   xmlns:xlink="http://www.w3.org/1999/xlink"
   xmlns="http://www.w3.org/2000/svg"
   xmlns:svg="http://www.w3.org/2000/svg"><defs
   id="defs21">
	<defs
   id="defs5">
		<rect
   id="SVGID_1_"
   width="283.46"
   height="283.46" />
	</defs>
	<clipPath
   id="SVGID_2_">
		<use
   xlink:href="#SVGID_1_"
   style="overflow:visible;"
   id="use7" />
	</clipPath>
	
	
	
</defs>


<rect
   style="fill:#343434;fill-opacity:1;stroke:none;stroke-width:22.3162;stroke-linejoin:round;stroke-dasharray:none;stroke-opacity:1"
   id="rect6868"
   width="29.54347"
   height="86.55719"
   x="126.67186"
   y="144.48351" /><rect
   style="fill:#000000;fill-opacity:1;stroke:#ffffff;stroke-width:22.3162;stroke-linejoin:round;stroke-dasharray:none;stroke-opacity:1"
   id="rect2426"
   width="205.29984"
   height="74.819542"
   x="38.793682"
   y="77.638626"
   rx="0"
   ry="0" /><rect
   style="fill:#ffffff;fill-opacity:1;stroke:#ff2603;stroke-width:14.5055;stroke-linejoin:round;stroke-dasharray:none;stroke-opacity:1"
   id="rect365"
   width="205.29984"
   height="74.819542"
   x="38.793682"
   y="77.638626"
   rx="0"
   ry="0" /><path
   style="fill:#343434;fill-opacity:1;stroke:#343434;stroke-width:2.00846;stroke-linejoin:round;stroke-dasharray:none;stroke-opacity:1"
   id="path7774"
   d="m 61.168135,127.27193 c 0.932784,-0.94788 1.905077,-1.85844 2.798349,-2.84365 1.118902,-1.23405 2.173373,-2.52532 3.234152,-3.80969 5.270432,-6.38129 10.059773,-13.07044 14.685652,-19.92702 0.697865,-0.96982 1.209191,-2.106107 2.093597,-2.909468 0.197348,-0.179267 0.410662,0.509613 0.287833,0.746243 -0.321528,0.619431 -1.375012,0.811284 -1.45611,1.504455 -0.163073,1.39385 0.548489,2.75277 0.796433,4.13404 0.83578,4.65607 0.947418,5.68164 1.637625,10.38692 0.802529,3.3747 0.525149,8.44673 3.129843,11.19263 0.711657,0.75024 1.583158,1.68924 2.616972,1.66592 5.013483,-0.11307 6.270389,-2.47161 9.367879,-5.55291 12.55063,-15.43089 -4.927108,6.24226 6.28497,-8.22756 0.60175,-0.77658 1.2081,-1.56848 1.95895,-2.20205 0.34548,-0.29153 1.2148,-0.96112 1.25624,-0.51097 0.0466,0.50676 -0.81241,0.61312 -1.21862,0.91967 0.38827,0.63208 0.77654,1.26416 1.16481,1.89624 1.9839,3.50475 4.04857,7.33365 8.09204,8.78151 2.31523,0.82903 4.03576,0.47812 6.48086,0.37672 0.65898,-0.008 1.31956,-0.0693 1.97693,-0.0228 0.25811,0.0183 0.49074,0.17159 0.74572,0.21564 0.73203,0.12648 1.47299,0.19432 2.20903,0.29489 2.3532,0.32149 4.65951,0.55916 7.03325,0.66927 2.52337,0.21699 4.99144,-0.36902 7.49501,-0.46739 0.0767,-0.003 0.14634,0.0472 0.22149,0.0627 2.30732,0.4753 0.69406,0.0198 3.48973,1.0091 4.92546,1.73678 9.91254,2.91043 15.18311,1.8461 4.19813,-0.84776 6.81242,-2.93661 10.38589,-5.14279 4.92261,-3.62233 8.95836,-8.17043 12.71572,-12.94393 0.88369,-1.12268 2.34409,-3.86976 4.16977,-4.43801 0.38688,-0.12042 0.78836,0.18755 1.18253,0.28132 0.002,0.46565 -0.21356,0.98593 0.006,1.39696 0.66106,1.24158 1.70862,2.23526 2.53479,3.37366 1.0552,1.45399 2.10387,2.91346 3.10872,4.40269 4.65523,6.89912 2.20814,3.76482 7.1233,10.77857 1.2054,1.72007 2.4797,3.39082 3.71954,5.08623 4.24551,5.23798 2.15352,2.83135 6.22512,7.26381 0.234,0.36066 5.33458,-2.94851 5.10059,-3.30918 v 0 c -3.29665,-4.5908 -1.55825,-2.1114 -5.18926,-7.45629 -3.66275,-5.32025 -7.25959,-10.70866 -11.159,-15.86076 -1.5492,-2.04686 -5.33681,-7.02462 -7.62933,-8.49838 -1.64131,-1.05513 -3.6265,-1.441316 -5.43975,-2.161974 -1.08903,0.198603 -2.23688,0.190726 -3.2671,0.595787 -2.67763,1.052817 -3.95351,2.777227 -5.89487,4.791727 -3.84558,3.99048 -7.57755,8.10919 -11.8419,11.66995 -4.69755,3.22008 -3.11165,2.53137 -7.9913,4.48803 -0.64907,0.26027 -1.28399,0.62816 -1.98032,0.69252 -2.74649,0.25384 -5.88731,-0.96253 -8.53693,-1.52826 -0.28847,-0.0732 -4.04736,-1.04888 -4.57909,-1.1073 -2.5631,-0.28158 -5.16043,-0.002 -7.72468,0.0721 -1.08565,-0.002 -3.26297,0.0243 -4.37124,-0.10221 -0.73605,-0.084 -1.45606,-0.27513 -2.18734,-0.39368 -2.78147,-0.45097 -5.6042,-0.70723 -8.42132,-0.46039 -3.38227,1.25855 -4.82177,-1.77656 -6.3123,-4.16727 -0.63596,-1.02005 -1.26892,-2.04197 -1.90337,-3.06296 -0.8749,-0.98272 -1.47178,-2.31417 -2.6247,-2.94816 -1.50536,-0.8278 -3.28321,-1.24345 -5.00117,-1.24531 -1.03518,-0.001 -1.97925,0.67486 -2.84864,1.23681 -3.95837,2.55858 -6.087273,6.91145 -8.972404,10.46467 -0.800522,1.11116 -1.997244,2.02503 -2.401564,3.33349 -0.181277,0.58664 0.715816,1.02937 0.86973,1.62377 0.05291,0.20433 -0.168453,0.71487 -0.30569,0.55452 -0.357091,-0.41725 -0.452562,-1.01272 -0.549147,-1.55336 -0.499833,-2.79778 -0.32875,-5.6909 -0.840404,-8.48475 -0.534976,-3.70774 -0.94931,-7.55282 -2.043793,-11.15725 -0.542654,-1.78711 -0.900753,-3.740768 -2.045964,-5.216127 -2.627387,-3.384853 -5.021639,-5.012238 -8.755339,-2.928703 -1.174448,0.655383 -1.904347,1.899702 -2.85652,2.849558 -3.372161,4.092942 -4.001365,4.732812 -7.266692,9.267092 -2.339488,3.24863 -5.039875,7.36008 -7.278058,10.71272 -0.911652,1.36559 -1.873906,2.69865 -2.736466,4.09575 -0.608058,0.9849 -1.114236,2.02916 -1.671353,3.04374 -0.202447,0.27721 3.717824,3.14022 3.920269,2.86301 z" /></svg>
