<?xml version="1.0" encoding="iso-8859-1"?>
<!-- Generator: Adobe Illustrator 16.0.0, SVG Export Plug-In . SVG Version: 6.00 Build 0)  -->
<!DOCTYPE svg PUBLIC "-//W3C//DTD SVG 1.1//EN" "http://www.w3.org/Graphics/SVG/1.1/DTD/svg11.dtd">
<svg version="1.1" id="Calque_1" xmlns="http://www.w3.org/2000/svg" xmlns:xlink="http://www.w3.org/1999/xlink" x="0px" y="0px"
	 width="283.46px" height="283.46px" viewBox="0 0 283.46 283.46" style="enable-background:new 0 0 283.46 283.46;"
	 xml:space="preserve">
<g>
	<defs>
		<rect id="SVGID_1_" width="283.46" height="283.46"/>
	</defs>
	<clipPath id="SVGID_2_">
		<use xlink:href="#SVGID_1_"  style="overflow:visible;"/>
	</clipPath>
	<path style="clip-path:url(#SVGID_2_);fill:#008B5A;" d="M0,141.732C0,63.449,63.45,0,141.732,0
		c78.283,0,141.733,63.449,141.733,141.732c0,78.282-63.45,141.731-141.733,141.731C63.45,283.464,0,220.015,0,141.732"/>
	<path style="clip-path:url(#SVGID_2_);fill:#FFFFFF;" d="M111.916,216.894V66.68H85.742C70.858,77.952,51.916,87.953,36.164,94.543
		l10.222,22.984C56.387,112.636,70.858,106.036,80,98.794v118.099H111.916z"/>
	<path style="clip-path:url(#SVGID_2_);fill:#FFFFFF;" d="M234.609,216.894v-25.114H172.7c1.91-8.722,17.022-21.904,24.674-28.935
		c18.083-16.373,34.476-28.504,34.476-54.259c0-30.634-24.904-45.957-51.288-45.957c-20.214,0-33.615,5.961-48.088,18.523
		l15.742,20.833c3.622-4.04,12.772-13.602,25.975-13.602c16.382,0,24.874,10.842,24.874,23.824
		c0,14.472-10.832,25.324-20.834,34.044c-20.013,17.454-37.246,33.396-41.076,50.849v19.794H234.609z"/>
</g>
</svg>
