<?xml version="1.0" encoding="iso-8859-1"?>
<!-- Generator: Adobe Illustrator 16.0.0, SVG Export Plug-In . SVG Version: 6.00 Build 0)  -->
<!DOCTYPE svg PUBLIC "-//W3C//DTD SVG 1.1//EN" "http://www.w3.org/Graphics/SVG/1.1/DTD/svg11.dtd">
<svg version="1.1" id="Calque_1" xmlns="http://www.w3.org/2000/svg" xmlns:xlink="http://www.w3.org/1999/xlink" x="0px" y="0px"
	 width="283.46px" height="283.46px" viewBox="0 0 283.46 283.46" style="enable-background:new 0 0 283.46 283.46;"
	 xml:space="preserve">
<g>
	<defs>
		<rect id="SVGID_1_" width="283.46" height="283.46"/>
	</defs>
	<clipPath id="SVGID_2_">
		<use xlink:href="#SVGID_1_"  style="overflow:visible;"/>
	</clipPath>
	<path style="clip-path:url(#SVGID_2_);fill:#FF8741;" d="M0,141.732C0,63.46,63.47,0,141.732,0
		c78.283,0,141.733,63.46,141.733,141.732c0,78.271-63.45,141.731-141.733,141.731C63.47,283.464,0,220.004,0,141.732"/>
	<path style="clip-path:url(#SVGID_2_);" d="M192.659,168.299c0-22.554-16.593-45.738-57.659-47.658c-1.49,0-3.391-0.21-4.251-0.21
		l2.12-28.514h54.049V66.803h-78.943l-5.96,78.092c4.9,0,14.902,0.21,23.414,0.21c27.654,0.431,34.895,15.322,34.895,26.174
		c0,17.663-14.673,24.694-26.374,24.694c-11.712,0-20.224-3.841-28.525-9.581l-12.121,23.394
		c11.481,7.031,24.893,10.861,42.336,10.861C169.896,220.646,192.659,197.033,192.659,168.299"/>
</g>
</svg>
