<?xml version="1.0" encoding="iso-8859-1"?>
<!-- Generator: Adobe Illustrator 16.0.0, SVG Export Plug-In . SVG Version: 6.00 Build 0)  -->
<!DOCTYPE svg PUBLIC "-//W3C//DTD SVG 1.1//EN" "http://www.w3.org/Graphics/SVG/1.1/DTD/svg11.dtd">
<svg version="1.1" id="Calque_1" xmlns="http://www.w3.org/2000/svg" xmlns:xlink="http://www.w3.org/1999/xlink" x="0px" y="0px"
	 width="283.46px" height="283.46px" viewBox="0 0 283.46 283.46" style="enable-background:new 0 0 283.46 283.46;"
	 xml:space="preserve">
<g>
	<defs>
		<rect id="SVGID_1_" width="283.46" height="283.46"/>
	</defs>
	<clipPath id="SVGID_2_">
		<use xlink:href="#SVGID_1_"  style="overflow:visible;"/>
	</clipPath>
	<path style="clip-path:url(#SVGID_2_);fill:#D0A0C7;" d="M0,141.732C0,63.46,63.45,0,141.732,0
		c78.283,0,141.733,63.46,141.733,141.732c0,78.282-63.45,141.731-141.733,141.731C63.45,283.464,0,220.015,0,141.732"/>
	<path style="clip-path:url(#SVGID_2_);fill-rule:evenodd;clip-rule:evenodd;" d="M195.362,175.017
		c0-19.793-12.122-32.565-25.954-39.136c14.052-8.531,21.283-20.433,21.283-34.485c0-25.755-21.924-38.737-48.317-38.737
		c-25.724,0-48.298,17.243-48.298,42.137c0,15.542,8.101,25.754,21.074,33.835c-14.473,7.442-25.755,20.003-25.755,40.006
		c0,22.774,18.944,42.757,52.339,42.757C172.588,221.394,195.362,203.531,195.362,175.017 M161.957,103.315
		c0,9.361-8.512,19.153-16.393,22.763c-9.572-4.04-21.903-11.692-21.903-24.043c0-10.422,7.441-17.653,19.143-17.653
		C155.155,84.382,161.957,92.883,161.957,103.315 M164.297,177.356c0,11.922-7.871,21.914-22.133,21.914
		c-14.463,0-22.554-11.692-22.554-24.044c0-11.702,9.782-22.334,19.573-26.174C151.955,155.443,164.297,163.734,164.297,177.356"/>
</g>
</svg>
