<?xml version="1.0" encoding="iso-8859-1"?>
<!-- Generator: Adobe Illustrator 16.0.0, SVG Export Plug-In . SVG Version: 6.00 Build 0)  -->
<!DOCTYPE svg PUBLIC "-//W3C//DTD SVG 1.1//EN" "http://www.w3.org/Graphics/SVG/1.1/DTD/svg11.dtd">
<svg version="1.1" id="Calque_1" xmlns="http://www.w3.org/2000/svg" xmlns:xlink="http://www.w3.org/1999/xlink" x="0px" y="0px"
	 width="283.46px" height="283.46px" viewBox="0 0 283.46 283.46" style="enable-background:new 0 0 283.46 283.46;"
	 xml:space="preserve">
<g>
	<defs>
		<rect id="SVGID_1_" width="283.46" height="283.46"/>
	</defs>
	<clipPath id="SVGID_2_">
		<use xlink:href="#SVGID_1_"  style="overflow:visible;"/>
	</clipPath>
	<path style="clip-path:url(#SVGID_2_);fill:#006DB2;" d="M0,141.732C0,63.46,63.46,0,141.732,0
		c78.283,0,141.733,63.46,141.733,141.732c0,78.271-63.45,141.731-141.733,141.731C63.46,283.464,0,220.004,0,141.732"/>
	<path style="clip-path:url(#SVGID_2_);fill:#FFFFFF;" d="M193.948,216.813v-25.114h-61.91c1.911-8.731,17.023-21.903,24.664-28.935
		c18.094-16.383,34.486-28.514,34.486-54.259c0-30.634-24.904-45.957-51.288-45.957c-20.213,0-33.616,5.961-48.088,18.513
		l15.742,20.843c3.621-4.04,12.773-13.612,25.975-13.612c16.382,0,24.874,10.852,24.874,23.824
		c0,14.472-10.842,25.334-20.833,34.056c-20.014,17.442-37.247,33.396-41.077,50.848v19.794H193.948z"/>
</g>
</svg>
