<?xml version="1.0" encoding="iso-8859-1"?>
<!-- Generator: Adobe Illustrator 16.0.0, SVG Export Plug-In . SVG Version: 6.00 Build 0)  -->
<!DOCTYPE svg PUBLIC "-//W3C//DTD SVG 1.1//EN" "http://www.w3.org/Graphics/SVG/1.1/DTD/svg11.dtd">
<svg version="1.1" id="Calque_1" xmlns="http://www.w3.org/2000/svg" xmlns:xlink="http://www.w3.org/1999/xlink" x="0px" y="0px"
	 width="283.46px" height="283.46px" viewBox="0 0 283.46 283.46" style="enable-background:new 0 0 283.46 283.46;"
	 xml:space="preserve">
<g>
	<defs>
		<rect id="SVGID_1_" width="283.46" height="283.46"/>
	</defs>
	<clipPath id="SVGID_2_">
		<use xlink:href="#SVGID_1_"  style="overflow:visible;"/>
	</clipPath>
	<path style="clip-path:url(#SVGID_2_);fill:#9E9640;" d="M0,141.732C0,63.46,63.45,0,141.732,0
		c78.283,0,141.733,63.46,141.733,141.732c0,78.271-63.45,141.731-141.733,141.731C63.45,283.464,0,220.004,0,141.732"/>
	<path style="clip-path:url(#SVGID_2_);fill:#FFFFFF;" d="M194.348,171.573c0-21.063-12.552-33.835-29.154-37.026v-0.42
		c15.952-5.951,24.264-18.293,24.264-33.825c0-20.014-17.463-38.307-48.088-38.307c-18.942,0-32.775,4.891-45.547,13.403
		l10.862,22.133c4.891-4.261,14.042-10.852,27.874-10.852c15.753,0,22.974,8.722,22.974,18.293c0,11.502-9.131,19.163-23.824,19.163
		h-15.752v24.884h15.542c15.323,0,28.504,5.961,28.504,23.193c0,12.772-10.852,22.983-28.294,22.983
		c-12.772,0-23.193-5.32-29.584-9.781l-11.702,23.193c10.011,5.951,21.923,11.262,43.417,11.262
		C170.724,219.87,194.348,197.967,194.348,171.573"/>
</g>
</svg>
