<?xml version="1.0" encoding="iso-8859-1"?>
<!-- Generator: Adobe Illustrator 16.0.0, SVG Export Plug-In . SVG Version: 6.00 Build 0)  -->
<!DOCTYPE svg PUBLIC "-//W3C//DTD SVG 1.1//EN" "http://www.w3.org/Graphics/SVG/1.1/DTD/svg11.dtd">
<svg version="1.1" id="Calque_1" xmlns="http://www.w3.org/2000/svg" xmlns:xlink="http://www.w3.org/1999/xlink" x="0px" y="0px"
	 width="283.46px" height="283.46px" viewBox="0 0 283.46 283.46" style="enable-background:new 0 0 283.46 283.46;"
	 xml:space="preserve">
<g>
	<defs>
		<rect id="SVGID_1_" width="283.46" height="283.46"/>
	</defs>
	<clipPath id="SVGID_2_">
		<use xlink:href="#SVGID_1_"  style="overflow:visible;"/>
	</clipPath>
	<path style="clip-path:url(#SVGID_2_);fill:#D5C932;" d="M0,141.732C0,63.46,63.45,0,141.732,0
		c78.273,0,141.733,63.46,141.733,141.732c0,78.282-63.46,141.731-141.733,141.731C63.45,283.464,0,220.015,0,141.732"/>
	<path style="clip-path:url(#SVGID_2_);fill-rule:evenodd;clip-rule:evenodd;" d="M196.716,131.393
		c0-39.797-14.682-68.311-55.749-68.311c-31.484,0-51.487,22.124-51.487,52.138c0,28.094,20.003,44.467,44.886,44.467
		c16.183,0,25.965-5.74,31.075-10.211c-2.13,30.215-17.452,47.027-38.516,47.027c-8.721,0-16.592-1.92-20.643-3.62l-4.67,25.533
		c6.38,1.501,14.042,2.551,22.553,2.551C172.253,220.967,196.716,183.52,196.716,131.393 M165.862,114.79
		c0,4.471,0,10.421-1.7,12.982c-2.98,4.681-10.642,8.301-20.224,8.301c-14.882,0-24.244-10.221-24.244-24.263
		c0-12.973,7.662-25.104,22.554-25.104C157.561,86.706,165.862,100.538,165.862,114.79"/>
</g>
</svg>
