<?xml version="1.0" encoding="iso-8859-1"?>
<!-- Generator: Adobe Illustrator 16.0.0, SVG Export Plug-In . SVG Version: 6.00 Build 0)  -->
<!DOCTYPE svg PUBLIC "-//W3C//DTD SVG 1.1//EN" "http://www.w3.org/Graphics/SVG/1.1/DTD/svg11.dtd">
<svg version="1.1" id="Calque_1" xmlns="http://www.w3.org/2000/svg" xmlns:xlink="http://www.w3.org/1999/xlink" x="0px" y="0px"
	 width="283.46px" height="283.46px" viewBox="0 0 283.46 283.46" style="enable-background:new 0 0 283.46 283.46;"
	 xml:space="preserve">
<g>
	<defs>
		<rect id="SVGID_1_" width="283.46" height="283.46"/>
	</defs>
	<clipPath id="SVGID_2_">
		<use xlink:href="#SVGID_1_"  style="overflow:visible;"/>
	</clipPath>
	<path style="clip-path:url(#SVGID_2_);fill:#EDAD3A;" d="M0,141.732C0,63.46,63.45,0,141.732,0
		c78.273,0,141.733,63.46,141.733,141.732c0,78.282-63.46,141.731-141.733,141.731C63.45,283.464,0,220.015,0,141.732"/>
	<path style="clip-path:url(#SVGID_2_);" d="M113.663,216.926V66.713H87.478C72.606,77.985,53.663,87.986,37.921,94.587
		l10.201,22.974c10.002-4.901,24.484-11.492,33.616-18.733v118.098H113.663z"/>
	<path style="clip-path:url(#SVGID_2_);fill-rule:evenodd;clip-rule:evenodd;" d="M244.45,141.601
		c0-34.685-8.941-79.362-54.269-79.362c-45.317,0-55.109,44.677-55.109,79.362c0,34.686,8.942,79.363,54.26,79.363
		C234.658,220.964,244.45,176.287,244.45,141.601 M211.896,141.601c0,14.892-0.86,54.258-22.134,54.258
		s-22.344-39.155-22.344-54.258c0-15.322,0.641-54.048,22.344-54.048C211.255,87.553,211.896,125.859,211.896,141.601"/>
</g>
</svg>
