<?xml version="1.0" encoding="iso-8859-1"?>
<!-- Generator: Adobe Illustrator 16.0.0, SVG Export Plug-In . SVG Version: 6.00 Build 0)  -->
<!DOCTYPE svg PUBLIC "-//W3C//DTD SVG 1.1//EN" "http://www.w3.org/Graphics/SVG/1.1/DTD/svg11.dtd">
<svg version="1.1" id="Calque_1" xmlns="http://www.w3.org/2000/svg" xmlns:xlink="http://www.w3.org/1999/xlink" x="0px" y="0px"
	 width="283.46px" height="283.46px" viewBox="0 0 283.46 283.46" style="enable-background:new 0 0 283.46 283.46;"
	 xml:space="preserve">
<g>
	<defs>
		<rect id="SVGID_1_" width="283.46" height="283.46"/>
	</defs>
	<clipPath id="SVGID_2_">
		<use xlink:href="#SVGID_1_"  style="overflow:visible;"/>
	</clipPath>
	<path style="clip-path:url(#SVGID_2_);fill:#D1448F;" d="M219.685,283.465H63.78c-35.225,0-63.78-28.556-63.78-63.78V63.78
		C0,28.555,28.555,0,63.78,0h155.905c35.225,0,63.78,28.555,63.78,63.78v155.905C283.465,254.909,254.909,283.465,219.685,283.465"
		/>
	<polygon style="clip-path:url(#SVGID_2_);fill:#FFFFFF;" points="93.672,216.67 93.672,66.538 186.605,66.538 186.605,93.543 
		126.848,93.543 126.848,124.38 184.475,124.38 184.475,150.321 126.848,150.321 126.848,189.664 189.792,189.664 189.792,216.67 	
		"/>
</g>
</svg>
