<?xml version="1.0" encoding="iso-8859-1"?>
<!-- Generator: Adobe Illustrator 16.0.0, SVG Export Plug-In . SVG Version: 6.00 Build 0)  -->
<!DOCTYPE svg PUBLIC "-//W3C//DTD SVG 1.1//EN" "http://www.w3.org/Graphics/SVG/1.1/DTD/svg11.dtd">
<svg version="1.1" id="Calque_1" xmlns="http://www.w3.org/2000/svg" xmlns:xlink="http://www.w3.org/1999/xlink" x="0px" y="0px"
	 width="283.46px" height="283.46px" viewBox="0 0 283.46 283.46" style="enable-background:new 0 0 283.46 283.46;"
	 xml:space="preserve">
<g>
	<defs>
		<rect id="SVGID_1_" width="283.46" height="283.46"/>
	</defs>
	<clipPath id="SVGID_2_">
		<use xlink:href="#SVGID_1_"  style="overflow:visible;"/>
	</clipPath>
	<path style="clip-path:url(#SVGID_2_);fill:#238FC9;" d="M219.685,283.465H63.78c-35.224,0-63.78-28.556-63.78-63.78V63.779
		C0,28.555,28.556,0,63.78,0h155.905c35.225,0,63.78,28.555,63.78,63.779v155.906C283.465,254.909,254.909,283.465,219.685,283.465"
		/>
	<path style="clip-path:url(#SVGID_2_);fill:#FFFFFF;" d="M138.221,216.671H83.569V66.538h56.996
		c28.063,0,54.439,7.657,54.439,38.064c0,15.527-12.341,27.219-24.032,29.345v0.427c15.731,2.126,28.924,14.461,28.924,35.728
		C199.896,207.952,166.719,216.671,138.221,216.671 M133.116,91.63h-16.37v34.451h16.797c17.436,0,28.924-2.766,28.924-17.015
		C162.467,95.249,152.257,91.63,133.116,91.63 M134.608,149.896h-17.862v41.895h19.567c21.048,0,29.34-6.592,29.34-22.541
		C165.653,152.661,149.709,149.896,134.608,149.896"/>
</g>
</svg>
