<?xml version="1.0" encoding="iso-8859-1"?>
<!-- Generator: Adobe Illustrator 16.0.0, SVG Export Plug-In . SVG Version: 6.00 Build 0)  -->
<!DOCTYPE svg PUBLIC "-//W3C//DTD SVG 1.1//EN" "http://www.w3.org/Graphics/SVG/1.1/DTD/svg11.dtd">
<svg version="1.1" id="Calque_1" xmlns="http://www.w3.org/2000/svg" xmlns:xlink="http://www.w3.org/1999/xlink" x="0px" y="0px"
	 width="283.46px" height="283.46px" viewBox="0 0 283.46 283.46" style="enable-background:new 0 0 283.46 283.46;"
	 xml:space="preserve">
<g>
	<defs>
		<rect id="SVGID_1_" width="283.46" height="283.46"/>
	</defs>
	<clipPath id="SVGID_2_">
		<use xlink:href="#SVGID_1_"  style="overflow:visible;"/>
	</clipPath>
	<path style="clip-path:url(#SVGID_2_);fill:#008B5A;" d="M219.685,283.465H63.78c-35.224,0-63.78-28.556-63.78-63.78V63.779
		C0,28.555,28.556,0,63.78,0h155.905c35.225,0,63.78,28.555,63.78,63.779v155.906C283.465,254.909,254.909,283.465,219.685,283.465"
		/>
	<path style="clip-path:url(#SVGID_2_);fill:#FFFFFF;" d="M125.733,216.671H83.421V66.537h43.803
		c43.804,0,91.017,9.784,91.017,71.667C218.24,203.913,171.667,216.671,125.733,216.671 M131.903,92.696h-15.314v98.029h16.379
		c28.916,0,51.03-11.057,51.03-50.395C183.998,98.222,152.313,92.696,131.903,92.696"/>
</g>
</svg>
