<?xml version="1.0" encoding="iso-8859-1"?>
<!-- Generator: Adobe Illustrator 16.0.0, SVG Export Plug-In . SVG Version: 6.00 Build 0)  -->
<!DOCTYPE svg PUBLIC "-//W3C//DTD SVG 1.1//EN" "http://www.w3.org/Graphics/SVG/1.1/DTD/svg11.dtd">
<svg version="1.1" id="Calque_1" xmlns="http://www.w3.org/2000/svg" xmlns:xlink="http://www.w3.org/1999/xlink" x="0px" y="0px"
	 width="283.46px" height="283.46px" viewBox="0 0 283.46 283.46" style="enable-background:new 0 0 283.46 283.46;"
	 xml:space="preserve">
<g>
	<defs>
		<rect id="SVGID_1_" width="283.46" height="283.46"/>
	</defs>
	<clipPath id="SVGID_2_">
		<use xlink:href="#SVGID_1_"  style="overflow:visible;"/>
	</clipPath>
	<path style="clip-path:url(#SVGID_2_);fill:#FF0000;" d="M219.685,283.465H63.78c-35.224,0-63.78-28.556-63.78-63.78V63.779
		C0,28.555,28.556,0,63.78,0h155.905c35.225,0,63.78,28.555,63.78,63.779v155.906C283.465,254.909,254.909,283.465,219.685,283.465"
		/>
	<path style="clip-path:url(#SVGID_2_);fill:#FFFFFF;" d="M177.461,216.671l-9.357-28.494H112.6l-9.358,28.494h-32.75
		l53.161-150.346h35.946l53.374,150.346H177.461z M147.259,123.955c-3.188-9.57-5.735-21.901-6.375-27.433h-0.425
		c-0.639,5.532-3.614,17.863-6.81,27.433l-12.757,39.342h39.125L147.259,123.955z"/>
</g>
</svg>
