<?xml version="1.0" encoding="UTF-8"?>
<svg id="Layer_1" data-name="Layer 1" xmlns="http://www.w3.org/2000/svg" viewBox="0 0 24 24.01">
  <defs>
    <style>
      .cls-1 {
        fill: #00a092;
      }

      .cls-2 {
        fill: #fff;
      }
    </style>
  </defs>
  <g id="Layer_1-2" data-name="Layer 1">
    <g>
      <path class="cls-1" d="M21.83,4.34H2.19c-.6,0-1.09-.49-1.09-1.09v-1.09c0-.6.49-1.09,1.09-1.09h19.64c.6,0,1.09.49,1.09,1.09v1.09c0,.6-.49,1.09-1.09,1.09M22.91,21.81v-1.09c0-.6-.49-1.09-1.09-1.09H2.19c-.6,0-1.09.49-1.09,1.09v1.09c0,.6.49,1.09,1.09,1.09h19.64c.6,0,1.09-.49,1.09-1.09"/>
      <g>
        <polygon points="6.25 9.34 6.25 16.24 4.4 16.24 4.4 9.34 1.81 9.34 1.81 7.83 8.84 7.83 8.84 9.34 6.25 9.34"/>
        <path d="M13.03,16.24v-6.61c-.51.41-1.32.77-1.88,1.05l-.57-1.29c.88-.37,1.94-.93,2.77-1.56h1.46v8.41h-1.79ZM21.21,14.48v1.75h-1.67v-1.75h-3.79v-1.56l3.26-5.1h2.19v5.34h.99v1.31h-.99ZM19.54,9.31h-.02c-.04.14-.28.65-.61,1.18l-1.72,2.69h2.35v-3.87Z"/>
      </g>
    </g>
  </g>
</svg>