<?xml version="1.0" encoding="UTF-8" standalone="no"?>
<!-- Generator: Adobe Illustrator 16.0.0, SVG Export Plug-In . SVG Version: 6.00 Build 0)  -->

<svg
   version="1.1"
   id="Calque_1"
   x="0px"
   y="0px"
   width="283.46px"
   height="283.46px"
   viewBox="0 0 283.46 283.46"
   style="enable-background:new 0 0 283.46 283.46;"
   xml:space="preserve"
   sodipodi:docname="TER_TER.svg"
   inkscape:version="1.2 (dc2aedaf03, 2022-05-15)"
   xmlns:inkscape="http://www.inkscape.org/namespaces/inkscape"
   xmlns:sodipodi="http://sodipodi.sourceforge.net/DTD/sodipodi-0.dtd"
   xmlns:xlink="http://www.w3.org/1999/xlink"
   xmlns="http://www.w3.org/2000/svg"
   xmlns:svg="http://www.w3.org/2000/svg"><defs
   id="defs17"><rect
     id="SVGID_1_-5"
     width="283.46"
     height="283.46" /><rect
     id="SVGID_1_-2"
     width="283.46"
     height="283.46" /></defs><sodipodi:namedview
   id="namedview15"
   pagecolor="#ffffff"
   bordercolor="#666666"
   borderopacity="1.0"
   inkscape:showpageshadow="2"
   inkscape:pageopacity="0.0"
   inkscape:pagecheckerboard="0"
   inkscape:deskcolor="#d1d1d1"
   showgrid="false"
   inkscape:zoom="1.5222607"
   inkscape:cx="68.976359"
   inkscape:cy="69.633277"
   inkscape:window-width="1920"
   inkscape:window-height="1017"
   inkscape:window-x="-8"
   inkscape:window-y="-8"
   inkscape:window-maximized="1"
   inkscape:current-layer="g12" />
<g
   id="g12">
	<defs
   id="defs3">
		<rect
   id="SVGID_1_"
   width="283.46"
   height="283.46" />
	</defs>
	<clipPath
   id="SVGID_2_">
		<use
   xlink:href="#SVGID_1_"
   style="overflow:visible;"
   id="use5" />
	</clipPath>
	<path
   style="fill:#000000;fill-opacity:1"
   d="M 219.685,283.465 H 63.78 C 28.556,283.465 0,254.909 0,219.685 V 63.779 C 0,28.555 28.556,0 63.78,0 h 155.905 c 35.225,0 63.78,28.555 63.78,63.779 v 155.906 c 0,35.224 -28.556,63.78 -63.78,63.78"
   clip-path="url(#SVGID_2_)"
   id="path8"
   transform="translate(353.42173)" />
	
<path
   style="fill:#000000;fill-opacity:1"
   d="M 219.685,283.465 H 63.78 C 28.556,283.465 0,254.909 0,219.685 V 63.779 C 0,28.555 28.556,0 63.78,0 h 155.905 c 35.225,0 63.78,28.555 63.78,63.779 v 155.906 c 0,35.224 -28.556,63.78 -63.78,63.78"
   clip-path="url(#SVGID_2_)"
   id="path6077"
   transform="translate(-344.8818)" /><path
   id="path6079"
   fill="#034ea2"
   d="m -240.83661,161.5576 c 0,-0.78515 0.0654,-1.57031 0.26172,-2.35546 0.98144,-4.58005 4.51463,-9.3564 9.09468,-12.16986 14.52532,-8.89839 26.56432,-6.28122 28.33091,-5.29978 0.19629,0.13086 0.0654,0.26172 -0.0654,0.58887 -1.63574,4.18747 -16.74992,17.46963 -36.11701,24.53601 -0.91601,-1.50488 -1.50488,-3.53319 -1.50488,-5.29978 m 50.24975,-24.33973 c -1.83202,-2.02831 -6.67379,-4.2529 -13.21673,-5.29977 -6.34665,-0.98144 -19.49795,-1.70117 -33.76155,5.62692 -14.9179,7.65524 -24.53601,21.85341 -20.21767,35.33186 0.0654,0 -12.56244,4.64548 -21.98427,2.74803 -5.10349,-1.04687 -9.87983,-4.77634 -11.38471,-9.8144 -2.35546,-7.72067 -0.39258,-20.9374 12.82416,-32.9764 17.46964,-15.96477 43.70681,-21.65712 54.89523,-24.07801 5.16892,-1.1123 5.82322,-1.30858 5.95407,-2.02831 0.0654,-0.32714 0.26172,-1.50487 -0.78515,-2.74803 -1.5703,-1.83202 -6.08493,-3.7949 -18.51651,-2.48632 -12.82415,1.43945 -30.35922,6.60837 -35.59357,8.2441 3.59861,-7.52437 14.7216,-27.545764 16.68449,-31.340667 3.20603,-6.15036 4.38376,-8.767535 4.38376,-10.206981 0,-0.392576 -0.13086,-0.719723 -0.32714,-0.916011 -1.83203,-1.701163 -12.30072,3.991191 -20.28311,13.413015 -8.04781,9.42183 -12.30072,17.01164 -18.64737,26.956904 -7.00094,11.12299 -28.9852,16.74992 -39.58476,19.62881 -2.81346,0.78515 -3.66404,0.91601 -4.05662,1.30859 -0.32715,0.39258 -0.45801,0.91601 -0.32715,1.43945 0.91601,3.1406 6.28122,6.4775 11.84272,6.73922 4.05662,0.19629 8.83296,-0.45801 16.35734,-2.55175 -3.99119,6.34665 -10.79585,20.41397 -10.79585,33.76156 0,10.40326 4.77635,22.76941 25.12488,24.73229 16.03019,1.50488 31.53695,-4.18748 42.46366,-8.37495 12.30072,9.55268 29.05063,9.02925 29.11606,9.02925 42.98709,0 62.94305,-34.41585 66.60709,-40.82792 0,0.0654 3.92577,12.82415 11.45014,23.16199 10.27241,14.19817 24.53601,18.64737 39.12676,17.27335 17.338783,-1.63573 28.527203,-15.04875 29.574073,-17.53507 0.52344,-1.24316 0,-2.55174 -3.20604,-0.85058 -2.6826,1.43945 -5.62692,3.59862 -12.82415,4.97263 -32.191253,6.08493 -41.809363,-27.34947 -48.679453,-41.6785 -0.91601,-2.02831 -1.76659,-3.53319 -2.6826,-3.92576 -1.96288,-0.78516 -17.14249,1.89745 -18.77823,5.10349 -16.88077,31.40609 -38.86504,38.40703 -55.4841,38.66875 -5.56149,0.0654 -10.27241,-1.04687 -14.00188,-3.00975 6.54294,-3.20604 11.12299,-5.69235 15.83391,-8.83296 17.27335,-11.51557 23.55457,-23.81629 23.55457,-27.80748 -0.13086,-0.26172 -0.32715,-0.52344 -0.6543,-0.85059 z"
   style="fill:#ffffff;fill-opacity:1;stroke-width:0.654294" /><g
   aria-label="TER"
   transform="scale(0.94228841,1.0612462)"
   id="text6083"
   style="font-size:142.905px;line-height:1.25;font-family:'Lucida Console';-inkscape-font-specification:'Lucida Console';letter-spacing:0px;word-spacing:0px;stroke-width:3.57267"><path
     d="M 48.254677,185.32784 V 96.221544 H 11.272427 V 82.056645 H 106.79828 V 96.221544 H 69.816027 v 89.106296 z"
     style="font-weight:600;font-family:'Lucida Sans';-inkscape-font-specification:'Lucida Sans Semi-Bold'"
     id="path10589" /><path
     d="M 121.24229,185.32784 V 82.056645 h 64.54449 v 14.164899 h -43.05292 v 28.818246 h 35.30758 v 14.23468 h -35.30758 v 31.40002 h 46.33248 v 14.65335 z"
     style="font-weight:600;font-family:'Lucida Sans';-inkscape-font-specification:'Lucida Sans Semi-Bold'"
     id="path10591" /><path
     d="M 207.06903,185.32784 V 82.056645 h 38.65692 q 11.86223,0 18.07246,3.000446 6.21023,2.930669 9.7689,9.001341 3.62844,6.000898 3.62844,13.606678 0,9.07112 -5.23333,17.16535 -5.23334,8.02445 -14.7929,12.28089 l 33.77247,48.21649 H 264.7753 l -25.60846,-42.21559 h -11.86223 v 42.21559 z m 20.23558,-56.38049 h 4.95422 q 13.32757,0 18.35157,-5.79156 5.024,-5.79156 5.024,-13.11824 0,-6.34978 -4.11689,-10.048003 -4.11689,-3.768003 -16.74668,-3.768003 h -7.46622 z"
     style="font-weight:600;font-family:'Lucida Sans';-inkscape-font-specification:'Lucida Sans Semi-Bold'"
     id="path10593" /></g></g>
</svg>
