<?xml version="1.0" encoding="iso-8859-1"?>
<!-- Generator: Adobe Illustrator 16.0.0, SVG Export Plug-In . SVG Version: 6.00 Build 0)  -->
<!DOCTYPE svg PUBLIC "-//W3C//DTD SVG 1.1//EN" "http://www.w3.org/Graphics/SVG/1.1/DTD/svg11.dtd">
<svg version="1.1" id="Calque_1" xmlns="http://www.w3.org/2000/svg" xmlns:xlink="http://www.w3.org/1999/xlink" x="0px" y="0px"
	 width="283.46px" height="283.46px" viewBox="0 0 283.46 283.46" style="enable-background:new 0 0 283.46 283.46;"
	 xml:space="preserve">
<g>
	<defs>
		<rect id="SVGID_1_" width="283.46" height="283.46"/>
	</defs>
	<clipPath id="SVGID_2_">
		<use xlink:href="#SVGID_1_"  style="overflow:visible;"/>
	</clipPath>
	<path style="clip-path:url(#SVGID_2_);fill:#FF97A8;" d="M219.685,283.465H63.779C28.555,283.465,0,254.909,0,219.685V63.78
		C0,28.555,28.555,0,63.779,0h155.906c35.225,0,63.78,28.555,63.78,63.78v155.905C283.465,254.909,254.909,283.465,219.685,283.465"
		/>
	<path style="clip-path:url(#SVGID_2_);" d="M173.691,216.67l-29.981-51.034c-4.891-8.296-9.57-8.936-12.97-8.936h-9.784v59.97
		H87.78V66.538h48.695c33.815,0,64.648,7.657,64.648,43.168c0,25.093-19.566,36.364-32.75,38.49
		c6.17,10.844,31.686,48.912,45.508,68.475H173.691z M137.114,92.27h-16.158v39.764h18.076c12.757,0,27.645-3.826,27.645-20.415
		C166.677,94.396,150.298,92.27,137.114,92.27"/>
</g>
</svg>
