<?xml version="1.0" encoding="iso-8859-1"?>
<!-- Generator: Adobe Illustrator 16.0.0, SVG Export Plug-In . SVG Version: 6.00 Build 0)  -->
<!DOCTYPE svg PUBLIC "-//W3C//DTD SVG 1.1//EN" "http://www.w3.org/Graphics/SVG/1.1/DTD/svg11.dtd">
<svg version="1.1" id="Calque_1" xmlns="http://www.w3.org/2000/svg" xmlns:xlink="http://www.w3.org/1999/xlink" x="0px" y="0px"
	 width="283.46px" height="283.46px" viewBox="0 0 283.46 283.46" style="enable-background:new 0 0 283.46 283.46;"
	 xml:space="preserve">
<g>
	<defs>
		<rect id="SVGID_1_" width="283.46" height="283.46"/>
	</defs>
	<clipPath id="SVGID_2_">
		<use xlink:href="#SVGID_1_"  style="overflow:visible;"/>
	</clipPath>
	<path style="clip-path:url(#SVGID_2_);fill:#FF8741;" d="M219.685,283.465H63.779C28.555,283.465,0,254.909,0,219.685V63.78
		C0,28.555,28.555,0,63.779,0h155.906c35.225,0,63.78,28.555,63.78,63.78v155.905C283.465,254.909,254.909,283.465,219.685,283.465"
		/>
	<path style="clip-path:url(#SVGID_2_);" d="M144.025,163.932h-15.314v52.738H95.543V66.538h46.138
		c34.668,0,64.436,9.357,64.436,46.573C206.117,156.7,169.754,163.932,144.025,163.932 M143.6,92.27h-14.888v46.147h15.314
		c12.331,0,28.498-3.831,28.498-23.18C172.523,94.821,154.661,92.27,143.6,92.27"/>
</g>
</svg>
