<?xml version="1.0" encoding="iso-8859-1"?>
<!-- Generator: Adobe Illustrator 16.0.0, SVG Export Plug-In . SVG Version: 6.00 Build 0)  -->
<!DOCTYPE svg PUBLIC "-//W3C//DTD SVG 1.1//EN" "http://www.w3.org/Graphics/SVG/1.1/DTD/svg11.dtd">
<svg version="1.1" id="Calque_1" xmlns="http://www.w3.org/2000/svg" xmlns:xlink="http://www.w3.org/1999/xlink" x="0px" y="0px"
	 width="283.46px" height="283.46px" viewBox="0 0 283.46 283.46" style="enable-background:new 0 0 283.46 283.46;"
	 xml:space="preserve">
<g>
	<defs>
		<rect id="SVGID_1_" width="283.46" height="283.46"/>
	</defs>
	<clipPath id="SVGID_2_">
		<use xlink:href="#SVGID_1_"  style="overflow:visible;"/>
	</clipPath>
	<path style="clip-path:url(#SVGID_2_);" d="M156.816,199.725c-15.624,0-24.283-3.861-31.555-8.191l8.506-16.865
		c4.643,3.249,12.222,7.119,21.501,7.119c12.688,0,20.574-7.426,20.574-16.712c0-12.528-9.586-16.858-20.728-16.858h-11.287v-18.098
		h11.44c10.674,0,17.325-5.571,17.325-13.923c0-6.958-5.256-13.303-16.705-13.303c-10.053,0-16.704,4.797-20.259,7.893
		l-7.893-16.091c9.28-6.184,19.341-9.747,33.103-9.747c22.275,0,34.964,13.302,34.964,27.846c0,11.294-6.037,20.267-17.639,24.597
		v0.306c12.068,2.322,21.194,11.601,21.194,26.918C199.358,183.795,182.187,199.725,156.816,199.725"/>
	<path style="clip-path:url(#SVGID_2_);" d="M243.332,176.465c-4.666,0-10.148-1.862-13.295-4.775v2.797H214.18V88.211h16.441
		v32.175c4.198-6.06,8.98-10.141,16.909-10.141c16.317,0,23.078,17.369,23.078,32.409
		C270.608,156.649,263.264,176.465,243.332,176.465 M241.229,124.467c-3.264,0-5.826,1.402-7.578,3.147
		c-2.797,2.686-3.147,4.432-3.147,8.045v21.107c0,4.308,2.563,8.155,10.024,8.155c10.499,0,13.062-11.31,13.062-19.814
		C253.59,136.711,251.604,124.467,241.229,124.467"/>
	<polygon style="clip-path:url(#SVGID_2_);" points="69.926,107.533 69.926,197.084 45.796,197.084 45.796,107.533 12.229,107.533 
		12.229,87.887 103.484,87.887 103.484,107.533 	"/>
	<path style="clip-path:url(#SVGID_2_);fill:#008B5A;" d="M269.291,42.518H14.173C6.346,42.518,0,36.171,0,28.345V14.17
		C0,6.344,6.346-0.002,14.173-0.002h255.118c7.828,0,14.174,6.346,14.174,14.173v14.174
		C283.465,36.171,277.119,42.518,269.291,42.518"/>
	<path style="clip-path:url(#SVGID_2_);fill:#008B5A;" d="M283.465,269.289v-14.173c0-7.828-6.346-14.174-14.174-14.174H14.173
		C6.346,240.942,0,247.288,0,255.116v14.173c0,7.828,6.346,14.173,14.173,14.173h255.118
		C277.119,283.462,283.465,277.117,283.465,269.289"/>
</g>
</svg>
