<?xml version="1.0" encoding="iso-8859-1"?>
<!-- Generator: Adobe Illustrator 16.0.0, SVG Export Plug-In . SVG Version: 6.00 Build 0)  -->
<!DOCTYPE svg PUBLIC "-//W3C//DTD SVG 1.1//EN" "http://www.w3.org/Graphics/SVG/1.1/DTD/svg11.dtd">
<svg version="1.1" id="Calque_1" xmlns="http://www.w3.org/2000/svg" xmlns:xlink="http://www.w3.org/1999/xlink" x="0px" y="0px"
	 width="283.46px" height="283.46px" viewBox="0 0 283.46 283.46" style="enable-background:new 0 0 283.46 283.46;"
	 xml:space="preserve">
<polygon points="114.997,107.412 114.997,196.962 90.867,196.962 90.867,107.412 57.3,107.412 57.3,87.765 148.555,87.765 
	148.555,107.412 "/>
<g>
	<defs>
		<rect id="SVGID_1_" width="283.46" height="283.46"/>
	</defs>
	<clipPath id="SVGID_2_">
		<use xlink:href="#SVGID_1_"  style="overflow:visible;"/>
	</clipPath>
	<path style="clip-path:url(#SVGID_2_);" d="M202.967,196.962v-85.839c-6.649,5.255-17.169,10.36-24.44,13.609l-7.422-16.708
		c11.443-4.794,25.213-12.056,36.035-20.259h19.025v109.197H202.967z"/>
	<path style="clip-path:url(#SVGID_2_);fill:#006DB2;" d="M269.291,42.518H14.173C6.346,42.518,0,36.171,0,28.345V14.17
		C0,6.344,6.346-0.002,14.173-0.002h255.118c7.828,0,14.174,6.346,14.174,14.173v14.174
		C283.465,36.171,277.119,42.518,269.291,42.518"/>
	<path style="clip-path:url(#SVGID_2_);fill:#006DB2;" d="M283.465,269.289v-14.173c0-7.828-6.346-14.174-14.174-14.174H14.173
		C6.346,240.942,0,247.288,0,255.116v14.173c0,7.828,6.346,14.173,14.173,14.173h255.118
		C277.119,283.462,283.465,277.117,283.465,269.289"/>
</g>
</svg>
