<?xml version="1.0" encoding="iso-8859-1"?>
<!-- Generator: Adobe Illustrator 16.0.0, SVG Export Plug-In . SVG Version: 6.00 Build 0)  -->
<!DOCTYPE svg PUBLIC "-//W3C//DTD SVG 1.1//EN" "http://www.w3.org/Graphics/SVG/1.1/DTD/svg11.dtd">
<svg version="1.1" id="Calque_1" xmlns="http://www.w3.org/2000/svg" xmlns:xlink="http://www.w3.org/1999/xlink" x="0px" y="0px"
	 width="283.46px" height="283.46px" viewBox="0 0 283.46 283.46" style="enable-background:new 0 0 283.46 283.46;"
	 xml:space="preserve">
<polygon points="103.704,107.412 103.704,196.962 79.574,196.962 79.574,107.412 46.007,107.412 46.007,87.765 137.262,87.765 
	137.262,107.412 "/>
<g>
	<defs>
		<rect id="SVGID_1_" width="283.46" height="283.46"/>
	</defs>
	<clipPath id="SVGID_2_">
		<use xlink:href="#SVGID_1_"  style="overflow:visible;"/>
	</clipPath>
	<path style="clip-path:url(#SVGID_2_);" d="M200.028,199.59c-29.855,0-40.527-20.721-40.527-49.645
		c0-37.899,17.791-65.119,52.743-65.119c6.188,0,11.755,0.772,16.397,1.856l-3.4,18.563c-2.938-1.243-8.664-2.627-15.003-2.627
		c-15.314,0-26.447,12.215-28.001,34.179c3.711-3.249,10.831-7.422,22.585-7.422c18.094,0,32.636,11.905,32.636,32.324
		C237.458,183.504,222.916,199.59,200.028,199.59 M197.862,146.536c-6.96,0-12.526,2.637-14.692,6.037
		c-1.234,1.855-1.234,6.188-1.234,9.437c0,10.361,6.028,20.41,17.161,20.41c10.831,0,16.397-8.815,16.397-18.243
		C215.494,153.967,208.693,146.536,197.862,146.536"/>
	<path style="clip-path:url(#SVGID_2_);fill:#FF0000;" d="M269.291,42.518H14.173C6.346,42.518,0,36.171,0,28.345V14.17
		C0,6.344,6.346-0.002,14.173-0.002h255.118c7.828,0,14.174,6.346,14.174,14.173v14.174
		C283.465,36.171,277.119,42.518,269.291,42.518"/>
	<path style="clip-path:url(#SVGID_2_);fill:#FF0000;" d="M283.465,269.289v-14.173c0-7.828-6.346-14.174-14.174-14.174H14.173
		C6.346,240.942,0,247.288,0,255.116v14.173c0,7.828,6.346,14.173,14.173,14.173h255.118
		C277.119,283.462,283.465,277.117,283.465,269.289"/>
</g>
</svg>
