<?xml version="1.0" encoding="iso-8859-1"?>
<!-- Generator: Adobe Illustrator 16.0.0, SVG Export Plug-In . SVG Version: 6.00 Build 0)  -->
<!DOCTYPE svg PUBLIC "-//W3C//DTD SVG 1.1//EN" "http://www.w3.org/Graphics/SVG/1.1/DTD/svg11.dtd">
<svg version="1.1" id="Calque_1" xmlns="http://www.w3.org/2000/svg" xmlns:xlink="http://www.w3.org/1999/xlink" x="0px" y="0px"
	 width="283.46px" height="283.46px" viewBox="0 0 283.46 283.46" style="enable-background:new 0 0 283.46 283.46;"
	 xml:space="preserve">
<polygon points="104.401,107.408 104.401,196.959 80.271,196.959 80.271,107.408 46.704,107.408 46.704,87.762 137.959,87.762 
	137.959,107.408 "/>
<g>
	<defs>
		<rect id="SVGID_1_" width="283.46" height="283.46"/>
	</defs>
	<clipPath id="SVGID_2_">
		<use xlink:href="#SVGID_1_"  style="overflow:visible;"/>
	</clipPath>
	<path style="clip-path:url(#SVGID_2_);" d="M197.787,199.897c-24.281,0-38.051-14.542-38.051-31.09
		c0-14.533,8.194-23.66,18.715-29.076c-9.438-5.877-15.314-13.298-15.314-24.591c0-18.102,16.397-30.629,35.112-30.629
		c19.176,0,35.111,9.437,35.111,28.152c0,10.209-5.256,18.874-15.465,25.053c10.05,4.794,18.865,14.08,18.865,28.462
		C236.761,186.909,220.212,199.897,197.787,199.897 M195.932,147.314c-7.12,2.778-14.231,10.511-14.231,19.016
		c0,8.976,5.877,17.479,16.397,17.479c10.36,0,16.087-7.27,16.087-15.926C214.185,157.985,205.209,151.948,195.932,147.314
		 M198.56,100.288c-8.505,0-13.921,5.265-13.921,12.837c0,8.976,8.967,14.542,15.927,17.481c5.727-2.628,11.914-9.748,11.914-16.548
		C212.479,106.476,207.526,100.288,198.56,100.288"/>
	<path style="clip-path:url(#SVGID_2_);fill:#9E9640;" d="M269.291,42.518H14.173C6.346,42.518,0,36.171,0,28.345V14.17
		C0,6.344,6.346-0.002,14.173-0.002h255.118c7.828,0,14.174,6.346,14.174,14.173v14.174
		C283.465,36.171,277.119,42.518,269.291,42.518"/>
	<path style="clip-path:url(#SVGID_2_);fill:#9E9640;" d="M283.465,269.289v-14.173c0-7.828-6.346-14.174-14.174-14.174H14.173
		C6.346,240.942,0,247.288,0,255.116v14.173c0,7.828,6.346,14.173,14.173,14.173h255.118
		C277.119,283.462,283.465,277.117,283.465,269.289"/>
</g>
</svg>
